<svg width="30" height="30" viewBox="0 0 30 30" fill="none" xmlns="http://www.w3.org/2000/svg">
<path d="M29 15C29 22.732 22.732 29 15 29C7.26801 29 1 22.732 1 15C1 7.26801 7.26801 1 15 1C22.732 1 29 7.26801 29 15Z" fill="white"/>
<path d="M17.1992 12.8008C18.0741 12.8008 18.9132 13.1484 19.5318 13.767C20.1504 14.3856 20.498 15.2247 20.498 16.0996V19.9482H18.2988V16.0996C18.2988 15.808 18.183 15.5283 17.9767 15.3221C17.7705 15.1159 17.4908 15 17.1992 15C16.9076 15 16.6279 15.1159 16.4217 15.3221C16.2155 15.5283 16.0996 15.808 16.0996 16.0996V19.9482H13.9004V16.0996C13.9004 15.2247 14.248 14.3856 14.8666 13.767C15.4852 13.1484 16.3243 12.8008 17.1992 12.8008Z" fill="#1B5ACC"/>
<path d="M11.7012 13.3506H9.50202V19.9482H11.7012V13.3506Z" fill="#1B5ACC"/>
<path d="M10.6016 11.7012C11.2089 11.7012 11.7012 11.2089 11.7012 10.6016C11.7012 9.99432 11.2089 9.50201 10.6016 9.50201C9.99433 9.50201 9.50202 9.99432 9.50202 10.6016C9.50202 11.2089 9.99433 11.7012 10.6016 11.7012Z" fill="#1B5ACC"/>
<path d="M29 15C29 22.732 22.732 29 15 29C7.26801 29 1 22.732 1 15C1 7.26801 7.26801 1 15 1C22.732 1 29 7.26801 29 15Z" stroke="#1B5ACC" stroke-linecap="round" stroke-linejoin="round"/>
<path d="M17.1992 12.8008C18.0741 12.8008 18.9132 13.1484 19.5318 13.767C20.1504 14.3856 20.498 15.2247 20.498 16.0996V19.9482H18.2988V16.0996C18.2988 15.808 18.183 15.5283 17.9767 15.3221C17.7705 15.1159 17.4908 15 17.1992 15C16.9076 15 16.6279 15.1159 16.4217 15.3221C16.2155 15.5283 16.0996 15.808 16.0996 16.0996V19.9482H13.9004V16.0996C13.9004 15.2247 14.248 14.3856 14.8666 13.767C15.4852 13.1484 16.3243 12.8008 17.1992 12.8008Z" stroke="#1B5ACC" stroke-linecap="round" stroke-linejoin="round"/>
<path d="M11.7012 13.3506H9.50202V19.9482H11.7012V13.3506Z" stroke="#1B5ACC" stroke-linecap="round" stroke-linejoin="round"/>
<path d="M10.6016 11.7012C11.2089 11.7012 11.7012 11.2089 11.7012 10.6016C11.7012 9.99432 11.2089 9.50201 10.6016 9.50201C9.99433 9.50201 9.50202 9.99432 9.50202 10.6016C9.50202 11.2089 9.99433 11.7012 10.6016 11.7012Z" stroke="#1B5ACC" stroke-linecap="round" stroke-linejoin="round"/>
</svg>
