<svg width="1668" height="650" viewBox="0 0 1668 650" fill="none" xmlns="http://www.w3.org/2000/svg">
<path d="M319.279 236.265C364.15 213.919 394.345 177.193 403.145 131.255C407.172 110.233 404.83 92.5643 396.167 77.99C387.214 63.6292 374.956 54.8234 359.343 51.8324C345.411 49.1635 332.356 52.3129 320.18 61.2806C308.003 70.2484 300.423 82.5183 297.49 97.8308C294.705 112.365 296.502 125.085 303.169 135.78C309.595 146.428 318.789 153.032 330.799 155.333C336.084 156.345 340.557 156.395 343.928 155.696C338.966 164.7 331.071 173.412 320.004 181.785C308.697 190.112 298.658 195.723 289.505 198.005L319.279 236.265Z" fill="#FFE11C"/>
<path d="M1422.16 378.214C1419.02 358.654 1417.03 334.226 1415.97 304.918C1414.67 275.6 1414.72 247.636 1415.87 221.534L1418.44 163.384C1419.59 137.282 1422 109.422 1425.89 80.0743C1429.53 50.9743 1433.67 26.8159 1438.52 7.60948L1280.36 0.628296C1283.53 19.6711 1285.75 44.11 1287.05 73.4281C1288.11 102.994 1288.05 130.958 1286.88 157.577L1284.31 215.726C1283.14 242.346 1280.73 270.205 1277.08 299.305C1273.21 328.395 1268.84 352.543 1264.01 371.233L1422.16 378.214Z" fill="#FFE11C"/>
<path d="M1557.91 649.235C1559.81 629.515 1564.05 605.377 1570.42 576.75C1576.57 548.054 1583.68 521.011 1591.39 496.045L1608.56 440.429C1616.27 415.464 1625.63 389.115 1636.81 361.701C1647.68 334.464 1657.78 312.132 1667.33 294.775L1516.06 248.079C1514.32 267.304 1510.3 291.512 1504.15 320.208C1497.7 349.082 1490.59 376.125 1482.73 401.585L1465.56 457.201C1457.7 482.661 1448.33 509.009 1437.46 536.246C1426.36 563.414 1416.04 585.676 1406.64 602.539L1557.91 649.235Z" fill="#FFE11C"/>
<path d="M598.768 477.951C595.099 465.897 593.326 445.909 593.406 418.507C593.486 391.105 594.153 368.451 595.651 350.565L596.14 338.859C598.659 308.79 617.407 290.783 645.531 293.14C659.227 294.288 669.308 300.353 675.798 311.077C682.287 321.802 684.891 334.811 683.631 349.845L683.11 356.066C679.656 397.282 671.426 439.663 658.685 482.971L823.027 496.743C817.274 453.712 816.646 405.367 821.142 351.709L821.685 345.229C824.835 307.643 817.306 276.993 799.365 253.04C781.179 229.067 753.255 215.503 715.349 212.326C697.497 210.83 681.318 212.868 667.324 218.222C638.826 229.146 622.437 248.395 608.358 278.278L601.755 277.725L601.929 275.651C603.927 251.804 611.11 230.739 623.456 212.718L456.669 198.742C462.307 240.198 462.93 285.67 458.781 335.18L457.891 345.808C455.87 369.915 453.176 390.311 449.563 406.976C445.951 423.641 440.898 442.795 434.427 464.18L598.768 477.951Z" fill="#FFE11C"/>
<path d="M222.95 584.877C277.175 563.673 313.924 531.612 329.027 496.602C344.131 461.591 343.893 425.16 329.473 388.283C315.053 351.406 290.418 324.23 255.572 308.751C220.726 293.272 172.073 294.891 117.849 316.094C73.9742 333.25 41.4925 357.65 23.6769 383.735C-3.80121 423.584 -5.48177 469.04 11.5513 512.6C23.068 542.052 40.4296 565.224 65.7581 581.571C102.32 606.081 155.804 610.847 222.95 584.877ZM188.594 497.015C162.494 507.221 139.099 493.827 128.55 466.85C118.001 439.872 126.105 414.162 152.205 403.956C178.53 393.662 201.925 407.056 212.474 434.033C223.023 461.01 214.919 486.721 188.594 497.015Z" fill="#FFE11C"/>
<path d="M1109.74 367.716C1130.64 354.173 1150.67 338.403 1169.77 320.753C1188.67 303.233 1201.73 287.624 1208.92 274.274L1150.51 188.477C1149.38 202.877 1143.19 217.759 1131.8 232.902C1120.41 248.046 1106.72 260.951 1090.59 271.399C1070.88 284.168 1050.67 291.361 1030 292.629C1009.49 294.117 994.97 290.473 986.517 281.35L988.883 276.711C1021.7 281.548 1049.31 270.498 1084.55 247.668C1133.93 215.681 1150.53 175.418 1124.6 135.375C1113.83 118.746 1100.15 106.794 1079.19 100.181C1068.68 97.0487 1057.34 95.6943 1045.12 96.4658C1020.54 97.7899 986.476 110.225 950.435 133.57C913.2 157.69 887.55 187.04 875.74 215.501C857.342 259.102 864.005 303.863 888.809 342.155C911.912 377.821 943.422 398.102 983.339 402.996C1023.4 408.11 1065.53 396.35 1109.74 367.716ZM1026.09 253.854C1008.96 264.946 993.074 267.473 978.364 261.781C968.284 238.802 974.393 221.177 990.124 210.988C1008.64 198.993 1023.05 201.156 1033.53 217.348C1037.22 223.037 1038.49 229.359 1037.28 236.663C1036.08 243.966 1032.26 249.856 1026.09 253.854Z" fill="#FFE11C"/>
<path d="M1545.33 232.5C1545.33 259.838 1523.39 282 1496.33 282C1469.27 282 1447.33 259.838 1447.33 232.5C1447.33 205.162 1469.27 183 1496.33 183C1523.39 183 1545.33 205.162 1545.33 232.5Z" fill="#1B5ACC"/>
</svg>
